# Blender 4.0.2
# www.blender.org
mtllib 1.mtl
o Cube
v -1.596692 -1.271188 1.000000
v -0.766555 1.000000 0.239709
v -1.394958 -1.266946 -1.052952
v -0.780166 0.967842 -0.750955
v 1.873646 -1.253442 1.078898
v 0.739376 1.000000 0.495049
v 1.000000 -1.260415 -1.758657
v 0.577668 0.416355 -1.000000
v -0.165034 -1.263909 -1.597261
v -0.165034 1.000000 -1.000000
v -0.616299 -1.263780 1.032939
v -0.137854 1.000000 0.631637
v -1.096926 -0.016646 0.342709
v -1.013048 -0.087810 -1.078915
v 0.814318 -0.016646 -1.194008
v 1.177569 -0.314319 0.631822
v -0.342123 -0.140919 0.572827
v -0.154493 -0.016646 -1.705266
v -1.053658 0.437186 0.370538
v -0.909089 0.383435 -1.012119
v 0.897207 0.437186 -1.107403
v 1.098302 0.272395 0.596952
v -0.263070 0.368389 0.730289
v -0.159198 0.437186 -1.470040
v -1.453855 -1.268185 -0.453584
v -0.776192 0.977231 -0.522692
v 1.255064 -1.258728 -0.930221
v 0.624880 0.586753 -0.563514
v -0.157099 1.000000 -0.584602
v -0.296782 -1.269026 -0.829364
v 1.384207 -0.103553 -0.660950
v -1.037536 -0.067033 -0.537601
v 1.419754 0.389075 -0.609809
v -0.951296 0.399128 -0.543147
v -1.552813 -1.270266 0.553468
v 0.704203 0.873053 0.169865
v -0.143766 1.000000 0.113345
v -0.518145 -1.265391 0.460850
v 1.562396 -0.249573 0.234690
v 1.518399 0.308238 0.226242
v -0.769516 0.993005 -0.139167
v 1.683622 -1.257302 0.461709
v -1.078682 -0.032124 0.072283
v -1.022213 0.425495 -0.054811
v -1.822430 0.422654 -0.095181
v -1.768642 0.395948 -0.448672
v -2.431453 -1.267074 -0.621049
v -2.530411 -1.269155 0.386003
v -1.181648 -0.566071 -1.067453
v 0.896291 -0.450764 -1.443282
v 1.484864 -0.933082 0.829191
v -0.463162 -0.652123 0.775951
v -0.159146 -0.450764 -1.657585
v -1.317556 -0.450764 0.632881
v -1.448819 -0.532406 -0.500510
v 1.327195 -0.591578 -0.779824
v -1.287995 -0.475844 0.284710
v 1.615913 -0.828174 0.334911
v -2.198925 0.045386 -0.667975
v -2.381537 0.055247 0.352825
vn -0.9618 0.2666 -0.0623
vn 0.3565 0.7730 -0.5247
vn 0.6893 0.6618 0.2947
vn -0.4328 0.3119 0.8458
vn 0.0039 -1.0000 0.0043
vn -0.0016 1.0000 -0.0078
vn 0.0655 0.9863 -0.1516
vn 0.0061 -1.0000 0.0015
vn 0.1251 0.1658 0.9782
vn -0.4185 0.5197 -0.7449
vn -0.5458 0.0494 -0.8364
vn 0.0135 0.3360 0.9418
vn -0.1020 0.4889 0.8663
vn 0.7752 0.3622 0.5176
vn 0.3274 0.2413 -0.9135
vn -0.8319 0.4987 -0.2434
vn -0.5476 0.3122 -0.7763
vn 0.0152 -0.1111 0.9937
vn -0.3677 -0.1304 0.9207
vn 0.6801 0.1007 0.7262
vn 0.3804 0.2798 -0.8815
vn -0.9766 0.2028 -0.0718
vn -0.9847 0.1366 -0.1081
vn 0.6874 0.0196 -0.7260
vn -0.0008 -1.0000 -0.0021
vn 0.7648 0.2566 -0.5909
vn -0.0009 -1.0000 -0.0048
vn 0.5383 0.8190 -0.1987
vn -0.0479 0.9988 -0.0137
vn 0.0048 -1.0000 -0.0025
vn 0.1259 0.9709 -0.2039
vn -0.9349 0.3444 -0.0855
vn -0.9047 0.4241 -0.0419
vn -0.9146 0.3927 -0.0964
vn -0.9921 0.1004 -0.0748
vn 0.9877 0.0143 -0.1560
vn 0.9741 0.0008 -0.2261
vn 0.0020 -1.0000 0.0010
vn 0.3167 0.9260 -0.2057
vn -0.0217 0.9997 -0.0142
vn 0.0049 -1.0000 0.0015
vn 0.4232 0.8909 -0.1646
vn -0.6014 0.7892 -0.1245
vn 0.2150 0.4860 0.8471
vn 0.5284 0.8490 -0.0022
vn 0.1690 -0.0647 -0.9835
vn 0.1203 0.0966 -0.9880
vn -0.0107 0.1431 0.9896
vn -0.9810 0.1377 -0.1367
vn 0.9615 0.0020 -0.2749
vn -0.9541 0.2833 -0.0968
vn 0.9039 0.1461 -0.4020
vn -0.9535 0.1334 -0.2703
vn 0.0233 0.1566 -0.9874
vn 0.8536 0.5209 0.0021
vn -0.0440 0.4103 0.9109
vn 0.0096 0.4795 0.8775
vn -0.4506 0.0211 -0.8925
vt 0.557013 0.186759
vt 0.625000 0.177011
vt 0.625000 0.250000
vt 0.556650 0.258798
vt 0.556663 0.353516
vt 0.625000 0.354371
vt 0.625000 0.500000
vt 0.558376 0.486770
vt 0.558424 0.701531
vt 0.625000 0.695623
vt 0.625000 0.750000
vt 0.558437 0.761227
vt 0.558608 0.894030
vt 0.625000 0.895629
vt 0.625000 1.000000
vt 0.560379 0.991902
vt 0.229371 0.695623
vt 0.375000 0.695623
vt 0.375000 0.750000
vt 0.229371 0.750000
vt 0.770629 0.695623
vt 0.875000 0.695623
vt 0.875000 0.750000
vt 0.770629 0.750000
vt 0.125000 0.695623
vt 0.125000 0.750000
vt 0.445674 0.258876
vt 0.501536 0.265892
vt 0.501558 0.352827
vt 0.445687 0.353508
vt 0.447477 0.761327
vt 0.504764 0.770280
vt 0.505073 0.892741
vt 0.447650 0.894016
vt 0.508271 0.985373
vt 0.449437 0.991830
vt 0.447464 0.701583
vt 0.504739 0.706294
vt 0.504652 0.476102
vt 0.447415 0.486652
vt 0.446040 0.186846
vt 0.502190 0.194619
vt 0.503290 0.074866
vt 0.557621 0.065720
vt 0.558394 0.566899
vt 0.504685 0.561988
vt 0.125000 0.572989
vt 0.447433 0.566845
vt 0.125000 0.500000
vt 0.229371 0.500000
vt 0.229371 0.572989
vt 0.770629 0.500000
vt 0.770629 0.572989
vt 0.625000 0.572989
vt 0.875000 0.500000
vt 0.875000 0.572989
vt 0.375000 0.500000
vt 0.375000 0.572989
vt 0.625000 0.054377
vt 0.557891 0.012050
vt 0.625000 0.000000
vt 0.446927 0.012158
vt 0.503778 0.021768
vt 0.446654 0.065821
vt 0.446654 0.065821
vt 0.446040 0.186846
vt 0.375000 0.177011
vt 0.375000 0.054377
vt 0.375000 0.000000
vt 0.375000 0.250000
vt 0.375000 0.354371
vt 0.375000 0.895629
vt 0.375000 1.000000
s 0
f 34/1/1 26/2/1 4/3/1 20/4/1
f 24/5/2 10/6/2 8/7/2 21/8/2
f 40/9/3 36/10/3 6/11/3 22/12/3
f 23/13/4 12/14/4 2/15/4 19/16/4
f 38/17/5 42/18/5 5/19/5 11/20/5
f 37/21/6 41/22/6 2/23/6 12/24/6
f 36/10/7 37/21/7 12/24/7 6/11/7
f 35/25/8 38/17/8 11/20/8 1/26/8
f 22/12/9 6/11/9 12/14/9 23/13/9
f 20/4/10 4/3/10 10/6/10 24/5/10
f 49/27/11 14/28/11 18/29/11 53/30/11
f 51/31/12 16/32/12 17/33/12 52/34/12
f 52/34/13 17/33/13 13/35/13 54/36/13
f 58/37/14 39/38/14 16/32/14 51/31/14
f 53/30/15 18/29/15 15/39/15 50/40/15
f 55/41/16 32/42/16 14/28/16 49/27/16
f 14/28/17 20/4/17 24/5/17 18/29/17
f 16/32/18 22/12/18 23/13/18 17/33/18
f 17/33/19 23/13/19 19/16/19 13/35/19
f 39/38/20 40/9/20 22/12/20 16/32/20
f 18/29/21 24/5/21 21/8/21 15/39/21
f 32/42/22 34/1/22 20/4/22 14/28/22
f 43/43/23 44/44/23 34/1/23 32/42/23
f 15/39/24 21/8/24 33/45/24 31/46/24
f 25/47/25 35/25/25 48/25/25 47/47/25
f 50/40/26 15/39/26 31/46/26 56/48/26
f 3/49/27 9/50/27 30/51/27 25/47/27
f 8/7/28 10/52/28 29/53/28 28/54/28
f 10/52/29 4/55/29 26/56/29 29/53/29
f 9/50/30 7/57/30 27/58/30 30/51/30
f 21/8/31 8/7/31 28/54/31 33/45/31
f 44/44/32 41/59/32 26/2/32 34/1/32
f 19/60/33 2/61/33 41/59/33 44/44/33
f 54/62/34 13/63/34 43/43/34 57/64/34
f 13/63/35 19/60/35 44/44/35 43/43/35
f 31/46/36 33/45/36 40/9/36 39/38/36
f 56/48/37 31/46/37 39/38/37 58/37/37
f 25/47/38 30/51/38 38/17/38 35/25/38
f 28/54/39 29/53/39 37/21/39 36/10/39
f 29/53/40 26/56/40 41/22/40 37/21/40
f 30/51/41 27/58/41 42/18/41 38/17/41
f 33/45/42 28/54/42 36/10/42 40/9/42
f 60/65/43 45/43/43 46/42/43 59/66/43
f 57/64/44 43/43/44 45/43/44 60/65/44
f 43/43/45 32/42/45 46/42/45 45/43/45
f 55/41/46 25/67/46 47/67/46 59/66/46
f 32/42/47 55/41/47 59/66/47 46/42/47
f 35/68/48 57/64/48 60/65/48 48/68/48
f 48/68/49 60/65/49 59/66/49 47/67/49
f 27/58/50 56/48/50 58/37/50 42/18/50
f 1/69/51 54/62/51 57/64/51 35/68/51
f 7/57/52 50/40/52 56/48/52 27/58/52
f 25/67/53 55/41/53 49/27/53 3/70/53
f 9/71/54 53/30/54 50/40/54 7/57/54
f 42/18/55 58/37/55 51/31/55 5/19/55
f 11/72/56 52/34/56 54/36/56 1/73/56
f 5/19/57 51/31/57 52/34/57 11/72/57
f 3/70/58 49/27/58 53/30/58 9/71/58
